# xmcd
#
# Track frame offsets:
#	150
#	28810
#	49077
#	78533
#	98286
#	101128
#	124354
#	143049
#	167988
#	179321
#	214915
#	248348
#
# Disc length: 3652 seconds
#
# Revision: 0
# Processed by: cddbd v1.5.1PL0 Copyright (c) Steve Scherf et al.
# Submitted via: dBpowerAMP V4.0
#
DISCID=a10e420c
DTITLE=Sammy Fender and The Blues Masters - Blues Jam
DYEAR=1900
DGENRE=Blues
TTITLE0=Dreamer
TTITLE1=Going To New York
TTITLE2=Let Me Tell You 'Bout My Baby
TTITLE3=It's All Right
TTITLE4=Sammy States His Case
TTITLE5=All Your Love
TTITLE6=King Bee's Tale
TTITLE7=Got My Mojo Working
TTITLE8=Hey Bo Diddley
TTITLE9=The Woman, She's My Woman
TTITLE10=The Thrill Is Gone
TTITLE11=Stone Brown Jam
EXTD=
EXTT0=
EXTT1=
EXTT2=
EXTT3=
EXTT4=
EXTT5=
EXTT6=
EXTT7=
EXTT8=
EXTT9=
EXTT10=
EXTT11=
PLAYORDER=
